<svg version="1.1" id="logo" xmlns="http://www.w3.org/2000/svg" xmlns:xlink="http://www.w3.org/1999/xlink" x="0px" y="0px"
	 width="2000px" height="663.158px" viewBox="0 0 2000 663.158" enable-background="new 0 0 2000 663.158" xml:space="preserve">
<g>
	<g>
		<path class="background" fill="#F47D52" d="M1443.805,567.955c-5.002,2.847-21.754,19.399-26.054,7.974c-3.548-9.386-0.335-20.038,1.946-29.371
			c2.646-10.861,5.838-21.575,8.685-32.384c1.81-6.844,3.662-13.687,5.315-20.571c1.852-7.732,2.646-15.611-7.617-15.611
			c-1.926,0-4.07,0.24-6.446,0.711c-2.396,0.481-4.708,1.214-6.905,2.197c-2.219,0.983-4.196,2.261-5.965,3.809
			c-1.925,1.717-3.086,3.662-3.516,5.808c-1.465,7.523-3.452,14.932-5.587,22.318c-2.323,8.015-4.803,16.009-7.063,24.045
			c-0.094,0.272-0.198,0.523-0.261,0.816c-0.104,0.376-0.188,0.774-0.293,1.172c-0.659,2.469-1.298,4.959-1.904,7.471
			c-3.066,11.07-7.848,22.601-18.531,26.985c-1.884,0.764-3.327,1.15-4.353,1.15c-2.794,0-4.865-1.705-6.184-5.105
			c-1.318-3.401-1.968-7.743-1.968-13.007c0-3.159,0.179-6.592,0.555-10.337c0.388-3.746,0.879-7.534,1.476-11.363
			c0.597-3.83,1.256-8.172,1.988-13.017c0.722-4.855,1.381-8.811,1.967-11.866c0.607-3.055,1.088-5.691,1.476-7.91
			c0.376-2.218,0.564-3.777,0.564-4.729c0-6.277-1.255-11.217-3.767-14.795c-2.501-3.578-5.881-5.357-10.139-5.357
			c-4.248,0-8.12,0.848-11.614,2.553c-3.495,1.695-6.593,4.845-9.303,9.438c-0.606,1.025-1.496,2.595-2.699,4.719
			c-1.172,2.124-2.501,4.572-3.944,7.335c-1.455,2.772-3.003,5.661-4.656,8.685c-0.22,0.377-0.408,0.858-0.639,1.256
			c-0.262,0.513-0.523,0.983-0.806,1.538c-8.057,15.58-10.662,17.003-11.206,14.304c0.178-1.309,0.335-2.836,0.523-4.604
			c0.376-3.516,0.784-6.676,1.213-9.428c0.419-2.772,0.838-5.451,1.225-8.046c0.377-2.595,0.68-4.97,0.952-7.146
			c0.241-2.166,0.377-3.893,0.377-5.158c0-4.688-0.9-8.434-2.679-11.238c-1.789-2.804-4.98-4.206-9.574-4.206
			c-4.604,0-8.234,1.318-10.902,3.955c-2.689,2.637-4.489,5.912-5.431,9.814c-1.193,5.022-2.417,11.07-3.694,18.123
			c-1.286,7.063-2.427,15.005-3.452,23.805c-1.025,8.799-1.853,16.888-2.554,24.243c-0.669,7.355-1.025,13.843-1.025,19.462
			c0,3.4,0.199,6.696,0.576,9.898c0.397,3.181,1.15,6.037,2.313,8.538c1.14,2.512,2.772,4.521,4.896,5.996
			c2.113,1.496,4.928,2.229,8.434,2.229c2.794,0,5.273-0.628,7.397-1.904c2.04-1.193,3.944-3.579,5.744-7.157l24.704-49.011l0,0
			v-0.011l2.554-5.085c3.212-6.017,8.15-13.969,7.156-3.631c-0.303,2.113-0.617,4.248-0.941,6.362
			c-0.011,0.052-0.021,0.104-0.021,0.167c-1.025,5.42-1.277,8.444-1.067,9.867c-0.293,3.673-0.492,7.262-0.492,10.6
			c0,10.274,0.042,23.469,6.341,32.175c2.512,3.463,7.251,6.612,11.447,7.324c12.315,2.104,24.662-5.242,35.68-11.918
			c0.157,0.408,0.272,0.827,0.43,1.234c3.86,8.727,11.813,11.74,21.063,11.74c4.929,0,10.129-0.879,15.633-2.668
			c5.472-1.779,10.86-4.018,16.124-6.696c2.73-1.382,3.693-4.28,4.729-6.938c1.475-3.871,2.992-7.722,4.342-11.636
			c0.806-2.386,2.49-6.57,0.712-8.81C1447.896,565.549,1444.914,567.327,1443.805,567.955z"/>
		<path fill="#F47D52" d="M1443.25,444.131c-0.89-1.799-2.093-3.243-3.609-4.331c-1.518-1.109-3.297-1.915-5.326-2.449
			c-2.051-0.533-4.217-0.806-6.529-0.806c-3.684,0-6.76,0.576-9.219,1.748c-2.479,1.172-4.457,2.595-5.933,4.29
			c-1.485,1.694-2.563,3.505-3.191,5.44c-0.68,1.926-1.015,3.642-1.015,5.169c0,4.583,1.381,8.267,4.154,11.028
			c2.772,2.742,7.052,4.134,12.838,4.134c3.359,0,6.236-0.513,8.644-1.538c2.396-1.036,4.405-2.386,5.975-4.05
			c1.59-1.664,2.73-3.558,3.452-5.692c0.712-2.113,1.1-4.311,1.1-6.57C1444.59,448.045,1444.14,445.921,1443.25,444.131z"/>
	</g>
	<path fill="#F47D52" d="M1268.417,525.829c-4.384-41.184-24.087-47.169-31.422-47.964c-0.063-0.031-0.083-0.063-0.125-0.104
		c-0.179,0-0.356,0-0.534,0c-0.188,0-0.345,0.011-0.533,0.011c-0.994-0.042-1.58,0.01-1.58,0.01l0.042,0.063
		c-0.921,0.021-1.862,0.063-2.783,0.125c-0.806-0.188-1.298-0.23-1.298-0.23l-0.523-0.01l-0.125,0.335
		c-6.78,0.648-13.017,2.249-18.719,4.854c-7.576,3.442-13.969,8.162-19.201,14.157c-5.242,6.006-9.249,13.059-12.074,21.188
		c-2.563,7.471-3.914,16.313-4.112,26.409c-0.89,6.896-2.104,14.806-3.338,17.704c-2.104,4.929-8.925,13.813-15.298,9.972
		c-4.437-2.679-4.551-10.055-4.551-14.606c0-5.923,0.303-11.521,0.899-16.805c0.597-5.273,1.476-11.144,2.689-17.589
		c1.182-6.445,2.071-12.315,2.668-17.631c0.597-5.336,0.89-10.955,0.89-16.888c0-3.851-1.382-6.843-4.144-8.946
		c-2.752-2.104-6.143-3.16-10.14-3.16c-3.578,0-6.581,1.183-9.051,3.547c-2.479,2.365-4.938,5.264-7.429,8.685
		c-2.543,3.537-5.273,7.607-8.225,12.242c-0.879,1.402-1.705,2.742-2.563,4.092c-0.439,0.617-0.899,1.381-1.476,2.354
		c-1.465,2.333-2.877,4.614-4.237,6.822c-2.49,4.018-4.781,8.057-6.896,12.116c-3.955,4.415-2.909-3.223-2.051-7.617
		c0.313-1.34,0.617-2.574,0.827-3.6c0.784-3.265,1.454-6.006,2.061-8.234c0.513-1.988,1.005-4.897,1.507-8.769
		c0.439-3.003,0.67-6.174,0.67-9.532c0-3.851-1.298-6.843-3.84-8.946c-2.563-2.104-5.608-3.16-9.188-3.16
		c-3.829,0-7.136,1.161-9.908,3.484c-2.752,2.323-5.357,5.231-7.827,8.747c-2.553,3.537-5.242,7.576-8.035,12.18
		c-2.815,4.583-5.441,8.999-7.869,13.205c-1.925,3.39-3.756,6.801-5.482,10.243c-5.295,7.597-4.656,0.472-3.777-4.499
		c0.146-0.848,0.313-1.685,0.481-2.501c0.167-0.837,0.293-1.381,0.293-1.381l-0.032,0.021c0.221-1.162,0.45-2.323,0.681-3.433
		c0.073-0.167,0.429-2.406,1.015-6.696c0.335-2.229,0.586-4.416,0.764-6.571c0.262-2.145,0.439-4.154,0.586-6.048
		c0.115-1.904,0.188-3.567,0.188-5.022c0-2.668-0.083-4.771-0.262-6.319c-0.156-1.538-0.7-2.721-1.601-3.537
		c-0.879-0.816-2.239-1.339-4.081-1.549c-1.831-0.209-4.353-0.324-7.586-0.324c-2.124,0-3.871,0.157-5.242,0.45
		c-1.35,0.313-2.511,0.91-3.483,1.8c-0.994,0.91-1.873,2.176-2.616,3.809c-0.785,1.632-1.591,3.819-2.438,6.571
		c-0.837,2.657-1.789,6.089-2.814,10.296c-1.015,4.217-2.009,8.852-2.982,13.916c-0.993,5.064-2.123,11.008-3.452,17.809
		c-0.031,0.126-0.042,0.251-0.084,0.366c-2.25,1.214-4.594,2.375-7.126,3.433c-4.091,1.694-8.046,2.542-11.875,2.542
		c-1.35,0-2.647-0.24-3.882-0.764c-1.235-0.502-2.344-1.381-3.328-2.616c-0.973-1.224-1.768-2.877-2.354-4.907
		c-0.607-2.029-0.9-4.593-0.9-7.659c0-1.778,0.23-4.018,0.659-6.696c0.418-2.679,1.088-6.11,2.02-10.265
		c0.941-4.175,1.622-7.565,2.051-10.16c0.429-2.584,0.627-4.604,0.627-6.048c0-1.883-0.324-3.558-1.015-5.043
		c-0.68-1.486-1.59-2.741-2.752-3.767c-1.13-1.025-2.469-1.8-4.007-2.365c-1.528-0.544-3.118-0.826-4.719-0.826
		c-4.677,0-8.81,1.255-12.378,3.777c-3.568,2.5-6.77,5.587-9.574,9.239c-2.804,3.651-5.472,8.255-8.046,13.78
		c-7.617,15.496-7.68,4.227-7.544,0.815c0.031-0.857,0.083-1.694,0.157-2.595c0.418-5.797,0.628-10.254,0.628-13.414
		c0-2.637-0.063-4.708-0.188-6.247c-0.115-1.538-0.492-2.688-1.088-3.505c-0.596-0.816-1.517-1.318-2.741-1.527
		c-1.224-0.21-2.961-0.324-5.148-0.324c-1.978,0-3.6,0.114-4.918,0.324c-1.329,0.209-2.448,0.628-3.327,1.276
		c-0.911,0.639-1.685,1.507-2.354,2.616c-0.69,1.099-1.36,2.584-2.051,4.457c-1.099,2.804-2.218,6.383-3.306,10.725
		c-1.12,4.343-2.417,9.763-3.966,16.271c-1.528,6.498-2.783,12.63-3.756,18.374c-0.983,5.755-1.831,11.374-2.563,16.909
		c-0.576,4.395-1.025,8.559-1.423,12.598c-1.371,1.444-2.783,2.888-4.269,4.27c-2.009,1.82-4.029,3.432-6.006,4.876
		c-2.009,1.423-3.986,2.573-5.943,3.474c-1.957,0.879-3.83,1.318-5.608,1.318c-2.386,0-3.945-1.099-4.646-3.296
		c-0.732-2.208-1.099-5.242-1.099-9.135c0-4.562,0.69-10.17,2.103-16.846c1.413-6.655,2.647-12.577,3.756-17.788
		c1.099-5.189,2.051-10.275,2.919-15.225c0.858-4.959,1.276-9.469,1.276-13.529c0-2.679-0.23-4.771-0.69-6.319
		c-0.481-1.549-1.141-2.752-1.988-3.62c-0.858-0.858-1.841-1.413-2.95-1.675c-1.109-0.251-2.323-0.376-3.6-0.376
		c-0.942,0-1.894,0.021-2.877,0.052c-0.994,0.053-1.957,0.073-2.898,0.073c-1.099,0-2.208-0.073-3.275-0.198
		c-1.078-0.126-2.124-0.408-3.149-0.827c-1.015-0.439-1.873-1.13-2.553-2.071c-0.69-0.942-1.392-1.915-2.135-2.898
		c-0.711-0.994-1.632-1.873-2.751-2.647c-1.109-0.774-2.647-1.161-4.615-1.161c-5.901,0-11.719,1.255-17.39,3.756
		c-5.703,2.49-11.112,5.87-16.239,10.107c-4.688,3.851-8.999,8.351-13.006,13.414c0,0,0-0.021,0-0.041
		c-5.786,5.922-36.674,59.097-41.393,63.345c-4.719,4.27-8.999,7.743-12.818,10.442c-3.83,2.7-7.23,4.678-10.212,5.943
		c-2.982,1.245-5.545,1.884-7.659,1.884c-5.608,0-9.637-1.674-12.064-5.022c-2.407-3.349-3.631-7.983-3.631-13.896
		c0-6.822,0.879-14.89,2.647-24.171c3.442-18.478,5.859-29.862,7.272-34.152c2.867-0.418,5.745-0.837,8.632-1.256
		c2.898-0.418,5.849-0.899,8.873-1.454c2.626-0.271,4.562-0.471,5.818-0.597c1.276-0.136,2.166-0.229,2.679-0.282
		c0.502-0.052,0.806-0.084,0.941-0.094c0.115,0,0.418-0.042,0.879-0.084c0.471-0.053,1.214-0.126,2.218-0.23
		c1.015-0.104,2.7-0.271,5.075-0.502c1.151-0.084,2.407-0.293,3.725-0.565c1.35-0.293,2.616-0.784,3.819-1.485
		c1.213-0.69,2.197-1.611,3.013-2.763c0.785-1.15,1.193-2.584,1.193-4.311c0-1.633-0.188-3.098-0.523-4.395
		c-0.356-1.276-1.015-2.407-1.936-3.349c-0.931-0.941-2.208-1.674-3.83-2.197c-1.632-0.502-3.788-0.774-6.424-0.774
		c-0.701,0.021-1.476,0.053-2.271,0.115c-0.795,0.053-1.664,0.115-2.595,0.188c-2.03,0.157-5.054,0.366-9.051,0.67
		c-4.018,0.303-8.141,0.784-12.315,1.507c2.051-6.54,4.186-13.132,6.445-19.776c2.25-6.645,4.51-13.11,6.78-19.451
		c2.26-6.341,4.5-12.515,6.697-18.5c2.208-6.006,4.3-11.646,6.257-16.908c1.109-3.098,1.789-5.985,2.051-8.675
		c0.251-2.688,0.366-5.054,0.366-7.083c0-2.219-0.345-4.144-1.067-5.818c-0.732-1.652-1.769-3.013-3.076-4.07
		c-1.339-1.057-2.867-1.852-4.604-2.364c-1.727-0.513-3.537-0.764-5.41-0.764c-4.52,0-8.465,1.443-11.792,4.332
		c-3.328,2.898-6.027,6.759-8.078,11.614c-6.131,14.648-11.74,29.59-16.814,44.846c-5.085,15.267-9.94,29.926-14.597,43.968
		c-11.018,0.606-21.973,1.192-32.907,1.789c-10.913,0.597-20.738,1.183-29.444,1.789c2.417-7.743,4.698-15.339,6.822-22.769
		c2.124-7.46,3.966-14.471,5.525-21.073c1.559-6.592,2.793-12.66,3.704-18.175c0.921-5.535,1.371-10.202,1.371-14.031
		c0-8.172-1.203-15.109-3.631-20.802c-2.417-5.713-5.703-10.338-9.825-13.916c-4.133-3.568-8.925-6.163-14.366-7.784
		c-5.431-1.612-11.144-2.428-17.087-2.428c-4.007,0-8.381,0.522-13.152,1.527c-4.782,1.036-9.553,2.49-14.355,4.416
		c-4.803,1.904-9.491,4.248-14.042,7.021c-4.541,2.752-8.559,5.828-12.033,9.177c-3.516,3.369-6.288,7.052-8.371,11.049
		c-2.093,3.997-3.128,8.203-3.128,12.63c0,3.306,0.167,6.1,0.513,8.36c0.324,2.249,0.837,3.39,1.517,3.39
		c1.339,0,2.846-0.355,4.5-1.025c1.643-0.69,3.432-1.842,5.378-3.453c5.566-4.604,10.725-8.434,15.486-11.552
		c4.771-3.097,9.197-5.608,13.236-7.533c4.049-1.904,7.732-3.285,11.07-4.144c3.338-0.837,6.268-1.276,8.81-1.276
		c3.097,0,5.724,0.564,7.837,1.653c2.104,1.108,3.83,2.657,5.19,4.604c1.339,1.946,2.302,4.332,2.898,7.136
		c0.596,2.825,0.9,5.881,0.9,9.188c0,4.102-0.439,8.392-1.276,12.901c-0.869,4.51-1.999,9.009-3.453,13.529
		c-1.601,4.928-4.154,12.158-7.659,21.701c-2.814,7.303-5.734,14.91-8.8,22.831h-12.242c-11.886,0-21.9-0.241-32.311-6.927
		c-2.898,4.186-5.033,18.206-1.203,22.653c2.867,3.316,6.11,5.891,9.762,7.774c3.662,1.872,7.638,3.181,11.949,3.944
		c4.28,0.764,8.769,1.141,13.456,1.141c-3.579,11.823-7.827,24.296-12.766,37.428c-5.012,12.545-9.061,25.688-12.127,39.395
		c-0.335,1.245-0.513,2.543-0.513,3.871c0,2.009,0.46,3.809,1.35,5.441c0.9,1.632,2.114,3.023,3.631,4.186
		c1.538,1.15,3.275,2.051,5.232,2.657c1.967,0.628,3.965,0.932,6.006,0.932c3.149,0,6.718-1.706,10.725-5.106
		c2.448-2.02,6.624-8.591,12.504-19.734c1.266-3.17,2.814-7.313,4.656-12.398c1.82-5.086,3.83-10.694,5.995-16.825
		c2.166-6.132,4.437-12.923,6.791-20.383c2.365-7.45,4.75-14.837,7.178-22.162c10.432-1.004,20.917-2.019,31.432-3.097
		c10.526-1.088,21.513-2.25,32.981-3.516c-1.716,6.466-3.286,13.268-4.782,20.383c-1.475,7.136-2.71,13.132-3.693,18.028
		c-0.973,4.907-1.706,9.26-2.229,13.11c-0.513,3.84-0.764,7.031-0.764,9.563c0,6.738,0.984,12.713,2.94,17.955
		c1.946,5.253,4.604,9.669,7.942,13.268c3.348,3.6,7.324,6.341,11.886,8.214c4.593,1.895,9.542,2.836,14.889,2.836
		c4.677,0,9.815-0.816,15.371-2.448c5.566-1.633,11.405-4.05,17.484-7.262c6.069-3.223,12.336-7.199,18.761-11.971
		c4.531-3.369,9.072-7.125,13.592-11.237c1.769,4.499,4.154,8.329,7.136,11.447c2.982,3.139,6.404,5.545,10.265,7.209
		c3.872,1.685,7.858,2.521,11.939,2.521c3.871,0,7.732-0.638,11.593-1.904c3.84-1.255,7.544-2.888,11.102-4.865
		c3.568-1.978,6.854-4.175,9.856-6.623c2.993-2.448,5.525-4.845,7.586-7.199c2.742,6.822,6.017,12.012,9.784,15.601
		c3.777,3.579,8.485,5.368,14.125,5.368c4.688,0,9.375-1.161,14.031-3.484c4.562-2.26,8.81-5.033,12.807-8.256
		c0.304,0.983,0.618,1.968,1.015,2.867c1.141,2.512,2.783,4.521,4.918,5.996c2.124,1.496,4.917,2.229,8.423,2.229
		c1.538,0,2.919-0.251,4.207-0.816c1.276-0.565,2.458-1.518,3.568-2.878c1.109-1.35,2.176-3.128,3.265-5.294
		c1.057-2.166,2.176-4.918,3.369-8.234l18.97-52.851l0,0v-0.021l0.418-1.141c1.266-3.358,5.179-12.273,7.094,0.764
		c0.272,1.821,0.565,3.233,0.868,4.343c0.063,0.366,0.126,0.753,0.22,1.119c1.109,5.232,2.804,9.951,5.106,14.179
		c2.302,4.206,5.399,7.596,9.313,10.19c3.903,2.596,9.051,3.893,15.444,3.893c3.568,0,7.083-0.522,10.516-1.59
		c2.866-0.879,5.618-1.988,8.297-3.223c-0.094,1.077-0.23,2.176-0.313,3.223c-0.429,4.803-0.649,8.956-0.649,12.462
		c0,3.296,0.199,6.497,0.565,9.595c0.397,3.097,1.161,5.859,2.323,8.287c1.141,2.448,2.783,4.395,4.907,5.839
		c2.124,1.443,4.928,2.155,8.412,2.155c2.721,0,5.222-0.586,7.471-1.789c2.25-1.204,4.228-3.484,5.933-6.875
		c5.881-11.468,10.652-21.178,14.367-29.099c3.683-7.899,6.738-14.355,9.124-19.326c1.025-2.135,1.925-4.018,2.762-5.724
		c0.89-1.747,8.842-17.316,6.446-0.638c-0.105,0.544-0.179,1.088-0.262,1.653c-0.042,0.271-0.084,0.522-0.146,0.815
		c-0.366,2.219-0.617,3.935-0.754,5.264c-0.178,1.183-0.377,2.438-0.523,3.6c-0.418,2.908-0.848,5.828-1.287,8.789
		c-0.418,2.94-0.795,5.744-1.13,8.381c-0.345,2.647-0.596,5.002-0.784,7.053c-0.168,2.051-0.241,3.62-0.241,4.75
		c0,2.554,0.137,5.19,0.439,7.921c0.304,2.731,0.9,5.222,1.8,7.492c0.879,2.271,2.135,4.133,3.757,5.577
		c1.611,1.443,3.777,2.155,6.497,2.155c3.568,0,6.729-0.607,9.47-1.831c2.71-1.235,5.158-3.61,7.388-7.157l21.439-54.305
		c1.632-3.987,6.372-14.388,5.105,2.322c-0.104,1.402-0.188,2.595-0.24,3.652c-0.031,0.376-0.053,0.753-0.094,1.13
		c-0.377,6.048-0.565,11.781-0.565,17.191c0,5.577,0.272,10.756,0.816,15.496c0.554,4.761,1.475,8.884,2.741,12.389
		c1.276,3.495,2.972,6.226,5.054,8.183c2.071,1.956,4.656,2.93,7.722,2.93c6.216,0,11.771-0.796,16.7-2.407
		c4.938-1.601,9.479-3.672,13.592-6.194c4.133-2.511,8.695-6.152,11.228-10.254c0.021-0.011,0.021-0.021,0.031-0.042
		c0.229,0.388,0.429,0.796,0.68,1.162c3.4,5.283,7.764,9.553,13.09,12.838c5.305,3.265,11.709,4.897,19.2,4.897
		c5.169,0,10.065-0.89,14.659-2.668c4.604-1.79,8.842-4.217,12.713-7.283c3.872-3.065,7.304-6.676,10.328-10.84
		c3.013-4.154,5.576-8.643,7.659-13.403c2.082-4.761,3.673-9.7,4.771-14.796c1.109-5.105,1.664-10.17,1.664-15.192
		c0-4.688-0.304-9.041-0.868-13.101L1268.417,525.829z M852.099,542.592c-0.355,2.741-1.099,6.163-2.25,10.275
		c-1.141,4.102-2.658,8.077-4.531,11.949c-1.873,3.851-4.102,7.157-6.654,9.877c-2.553,2.742-5.41,4.123-8.57,4.123
		c-1.957,0-3.579-0.502-4.834-1.518c-1.297-1.004-2.313-2.322-3.076-3.944c-0.774-1.622-1.297-3.474-1.59-5.535
		c-0.304-2.062-0.46-4.186-0.46-6.372c0-3.715,0.492-7.681,1.465-11.897s2.668-9.113,5.043-14.669
		c2.375-5.577,4.803-10.244,7.272-14.053c2.469-3.788,5.179-7.157,8.099-10.118c2.94-2.94,6.069-5.284,9.375-7
		c3.338-1.737,6.728-2.605,10.223-2.605L852.099,542.592z M1242.907,546.851c-1.225,6.33-2.867,11.74-4.918,16.197
		c-2.03,4.468-4.405,8.172-7.136,11.102c-2.731,2.94-5.525,4.405-8.423,4.405c-3.317,0-6.163-0.701-8.549-2.104
		c-2.375-1.401-4.301-3.285-5.745-5.618c-1.443-2.334-2.5-5.075-3.201-8.235c-0.67-3.139-0.994-6.497-0.994-10.065
		c0-7.073,0.67-13.414,2.03-19.022c1.35-5.608,3.223-10.735,5.608-15.371c2.385-4.646,5.147-8.443,8.287-11.415
		c3.149-2.982,6.455-4.479,9.961-4.479c2.646,0,4.887,0.732,6.759,2.177c1.873,1.443,3.411,3.4,4.604,5.859
		c1.182,2.469,2.082,5.378,2.688,8.747c0.576,3.358,0.879,7,0.879,10.913C1244.759,534.881,1244.131,540.521,1242.907,546.851z"/>
</g>
<g>
	<path class="circle" fill="#F47D52" d="M1029.412,407.865c-97.979,0-177.69-79.71-177.69-177.679s79.71-177.679,177.69-177.679
		c97.958,0,177.679,79.71,177.679,177.679S1127.37,407.865,1029.412,407.865z M1029.412,85.99
		c-79.522,0-144.186,64.685-144.186,144.196c0,79.511,64.664,144.196,144.186,144.196c79.49,0,144.186-64.685,144.186-144.196
		C1173.598,150.674,1108.902,85.99,1029.412,85.99z"/>
</g>
<g>
	<path class="logo-bar" fill="#F3A552" d="M1016.771,287.76c0,4.4-3.6,8-8,8h-18.299c-4.4,0-8-3.6-8-8v-92.422c0-4.4,3.6-8,8-8h18.299
		c4.4,0,8,3.6,8,8V287.76z"/>
</g>
<g>
	<path class="logo-bar" fill="#F47D52" d="M965.323,287.76c0,4.4-3.6,8-8,8h-18.289c-4.4,0-8-3.6-8-8v-39.247c0-4.4,3.6-8,8-8h18.289c4.4,0,8,3.6,8,8
		V287.76z"/>
</g>
<g>
	<path class="logo-bar" fill="#F47D52" d="M1068.23,287.76c0,4.4-3.6,8-8,8h-18.309c-4.4,0-8-3.6-8-8V151.34c0-4.4,3.6-8,8-8h18.309c4.4,0,8,3.6,8,8
		V287.76z"/>
</g>
<g>
	<path class="logo-bar" fill="#F47D52" d="M1119.648,287.76c0,4.4-3.6,8-8,8h-18.278c-4.4,0-8-3.6-8-8v-72.897c0-4.4,3.6-8,8-8h18.278
		c4.4,0,8,3.6,8,8V287.76z"/>
</g>


</svg>
